<svg xmlns="http://www.w3.org/2000/svg"  viewBox="0 0 100 100" width="100px" height="100px"><path fill="#78a2d2" d="M50,73c17,0,28-8,28-8s-3,7-12,10l3,5c15.515-0.5,22-10.857,22-10.857	c0-23-10.11-41.642-10.11-41.642c-10.11-7.714-19.728-7.5-19.728-7.5L60,21c11.935,3.714,17,10,17,10c-7.301-4.071-16-7-27-7	s-19.699,2.929-27,7c0,0,5.065-6.286,17-10l-1.163-0.999c0,0-9.618-0.214-19.728,7.5c0,0-10.11,18.643-10.11,41.642	c0,0,6.485,10.357,22,10.857l3-5c-9-3-12-10-12-10S33,73,50,73z"/><ellipse cx="62.5" cy="55" fill="#fff" rx="7.5" ry="8"/><ellipse cx="37.5" cy="55" fill="#fff" rx="7.5" ry="8"/><path fill="#1f212b" d="M69,81c-0.351,0-0.677-0.184-0.857-0.485l-3-5c-0.156-0.26-0.186-0.577-0.08-0.862	c0.104-0.284,0.334-0.505,0.621-0.602c4.361-1.454,7.245-3.895,9.021-5.932C70.022,70.545,61.358,74,50,74	c-11.341,0-19.995-3.444-24.683-5.869c1.782,2.037,4.664,4.476,8.999,5.92c0.287,0.096,0.517,0.317,0.621,0.602	c0.105,0.285,0.076,0.602-0.08,0.862l-3,5c-0.187,0.311-0.547,0.504-0.89,0.485C15.102,80.488,8.429,70.115,8.152,69.674	C8.053,69.515,8,69.331,8,69.143c0-22.988,10.128-41.931,10.23-42.119c0.067-0.125,0.16-0.233,0.272-0.318	c10.274-7.84,19.945-7.713,20.356-7.705c0.231,0.005,0.454,0.09,0.629,0.241l1.163,1c0.276,0.237,0.401,0.605,0.328,0.961	c-0.074,0.356-0.335,0.644-0.683,0.752c-4.389,1.366-7.824,3.087-10.399,4.699C36.259,24.202,42.896,23,50,23	c7.093,0,13.72,1.197,20.072,3.642c-2.576-1.61-6.005-3.329-10.369-4.687c-0.348-0.108-0.608-0.396-0.683-0.752	c-0.073-0.356,0.052-0.724,0.328-0.961l1.163-1c0.175-0.151,0.397-0.236,0.629-0.241c0.409-0.006,10.081-0.136,20.356,7.705	c0.112,0.085,0.205,0.194,0.272,0.318C81.872,27.212,92,46.155,92,69.143c0,0.188-0.053,0.372-0.152,0.531	C91.571,70.115,84.898,80.488,69.032,81C69.021,81,69.011,81,69,81z M67.482,75.527l2.069,3.449	c13.105-0.65,19.41-8.686,20.447-10.141c-0.085-21.143-8.86-38.688-9.89-40.672c-6.713-5.063-13.193-6.549-16.552-6.984	c9.766,3.771,14.026,8.952,14.221,9.193c0.301,0.373,0.295,0.906-0.014,1.272c-0.309,0.366-0.834,0.462-1.252,0.229	C68.218,27.249,59.546,25,50,25s-18.218,2.249-26.513,6.874c-0.417,0.233-0.943,0.137-1.252-0.229	c-0.309-0.366-0.314-0.899-0.014-1.272c0.193-0.241,4.45-5.417,14.203-9.187c-3.37,0.443-9.854,1.939-16.534,6.977	c-1.029,1.987-9.805,19.552-9.89,40.673c1.037,1.456,7.342,9.491,20.447,10.141l2.069-3.449	c-8.418-3.286-11.313-9.844-11.437-10.133c-0.178-0.414-0.057-0.894,0.295-1.175c0.352-0.281,0.849-0.292,1.212-0.028	C22.695,64.269,33.554,72,50,72s27.305-7.731,27.412-7.809c0.364-0.264,0.861-0.253,1.212,0.028	c0.352,0.281,0.473,0.761,0.295,1.175C78.795,65.684,75.9,72.242,67.482,75.527z"/><path fill="#1f212b" d="M62.5,64c-4.687,0-8.5-4.038-8.5-9s3.813-9,8.5-9s8.5,4.038,8.5,9S67.187,64,62.5,64z M62.5,48	c-3.584,0-6.5,3.14-6.5,7s2.916,7,6.5,7s6.5-3.14,6.5-7S66.084,48,62.5,48z"/><path fill="#1f212b" d="M37.5,64c-4.687,0-8.5-4.038-8.5-9s3.813-9,8.5-9s8.5,4.038,8.5,9S42.187,64,37.5,64z M37.5,48	c-3.584,0-6.5,3.14-6.5,7s2.916,7,6.5,7s6.5-3.14,6.5-7S41.084,48,37.5,48z"/><path fill="#1f212b" d="M74.5,35.271c-0.082,0-0.165-0.02-0.241-0.062c-0.188-0.104-0.378-0.198-0.567-0.292l-0.423-0.214	c-0.245-0.128-0.34-0.43-0.212-0.675c0.129-0.244,0.434-0.339,0.675-0.211l0.405,0.205c0.202,0.101,0.404,0.201,0.604,0.312	c0.242,0.133,0.33,0.437,0.197,0.679C74.847,35.177,74.676,35.271,74.5,35.271z"/><path fill="#1f212b" d="M71.5,33.745c-0.071,0-0.145-0.015-0.213-0.048c-1.553-0.731-3.173-1.385-4.95-2	c-0.262-0.09-0.399-0.375-0.31-0.636c0.09-0.26,0.377-0.397,0.636-0.309c1.813,0.626,3.464,1.294,5.05,2.041	c0.25,0.118,0.357,0.416,0.239,0.665C71.867,33.639,71.688,33.745,71.5,33.745z"/><path fill="#1f212b" d="M25.5,35.271c-0.176,0-0.348-0.094-0.438-0.259c-0.133-0.242-0.044-0.546,0.197-0.679	C33.016,30.071,41.108,28,50,28c5.102,0,9.891,0.689,14.643,2.106c0.265,0.079,0.415,0.357,0.337,0.622	c-0.079,0.264-0.358,0.417-0.622,0.336C59.699,29.675,55.003,29,50,29c-8.719,0-16.654,2.031-24.259,6.208	C25.664,35.25,25.582,35.271,25.5,35.271z"/></svg>